<svg xmlns="http://www.w3.org/2000/svg" width="16" height="16" viewBox="0 0 16 16">
  <g id="Group" transform="translate(-66 -435)">
    <path id="Vector" d="M8,.5A.5.5,0,0,1,8.5,0h1a.5.5,0,0,1,.5.5v1a.5.5,0,0,1-.5.5h-1A.5.5,0,0,1,8,1.5ZM5,.5A.5.5,0,0,1,5.5,0h1A.5.5,0,0,1,7,.5v1a.5.5,0,0,1-.5.5h-1A.5.5,0,0,1,5,1.5Zm-5,3A.5.5,0,0,1,.5,3h1a.5.5,0,0,1,.5.5v1a.5.5,0,0,1-.5.5H.5A.5.5,0,0,1,0,4.5Zm3,0A.5.5,0,0,1,3.5,3h1a.5.5,0,0,1,.5.5v1a.5.5,0,0,1-.5.5h-1A.5.5,0,0,1,3,4.5Z" transform="translate(69 441)" fill="#6c1682"/>
    <path id="Vector-2" data-name="Vector" d="M3.5,0A.5.5,0,0,1,4,.5V1h8V.5a.5.5,0,1,1,1,0V1h1a2,2,0,0,1,2,2V14a2,2,0,0,1-2,2H2a2,2,0,0,1-2-2V3A2,2,0,0,1,2,1H3V.5A.5.5,0,0,1,3.5,0ZM1,4V14a1,1,0,0,0,1,1H14a1,1,0,0,0,1-1V4Z" transform="translate(66 435)" fill="#6c1682"/>
  </g>
</svg>
