<svg xmlns="http://www.w3.org/2000/svg" width="13.982" height="16.6" viewBox="0 0 13.982 16.6">
  <g id="Group_4" data-name="Group 4" transform="translate(-263 -99)">
    <g id="edit_icon" data-name="edit icon">
      <path id="Vector" d="M13.667,2.562,11.42.315a1.073,1.073,0,0,0-1.52,0L.761,9.508l-.74,3.206A1.073,1.073,0,0,0,1.068,14a1.127,1.127,0,0,0,.247,0l3.233-.713,9.119-9.206a1.073,1.073,0,0,0,0-1.52ZM3.854,12.054l-2.44.54.567-2.42L8.86,3.248l1.88,1.88Zm7.639-7.679L9.614,2.5l1.033-1.053L12.54,3.335Z" transform="translate(263 99)" fill="#6c1682"/>
    </g>
    <line id="Line_13" data-name="Line 13" x2="12" transform="translate(263 115)" fill="none" stroke="#6c1682" stroke-width="1.2"/>
  </g>
</svg>
