<svg xmlns="http://www.w3.org/2000/svg" width="18" height="24" viewBox="0 0 18 24">
  <path id="Vector" d="M9,0A5.766,5.766,0,0,0,4.781,1.781,5.766,5.766,0,0,0,3,6V9a2.9,2.9,0,0,0-2.133.867A2.9,2.9,0,0,0,0,12v9a2.9,2.9,0,0,0,.867,2.133A2.9,2.9,0,0,0,3,24H15a2.962,2.962,0,0,0,3-3V12a2.962,2.962,0,0,0-3-3V6a5.766,5.766,0,0,0-1.781-4.219A5.766,5.766,0,0,0,9,0Zm6.984,12v9a.87.87,0,0,1-.984.984H3A.87.87,0,0,1,2.016,21V12A.87.87,0,0,1,3,11.016H15A.87.87,0,0,1,15.984,12ZM5.016,9V6A3.836,3.836,0,0,1,6.188,3.188,3.836,3.836,0,0,1,9,2.016a3.836,3.836,0,0,1,2.813,1.172A3.836,3.836,0,0,1,12.984,6V9ZM9,12a2.962,2.962,0,0,0-3,3,2.843,2.843,0,0,0,.563,1.711,3.075,3.075,0,0,0,1.453,1.1v1.172q0,1.031.984,1.031t.984-1.031V17.813A2.743,2.743,0,0,0,12,15a2.962,2.962,0,0,0-3-3Zm0,3.984A.87.87,0,0,1,8.016,15,.87.87,0,0,1,9,14.016.87.87,0,0,1,9.984,15,.87.87,0,0,1,9,15.984Z" fill="#6c1682"/>
</svg>
