<svg xmlns="http://www.w3.org/2000/svg" width="15" height="14" viewBox="0 0 15 14">
  <path id="Vector" d="M14.637,2.869a4.715,4.715,0,0,0-.988-1.5,4.58,4.58,0,0,0-1.458-1A4.447,4.447,0,0,0,10.413,0,4.527,4.527,0,0,0,7.5,1.069,4.527,4.527,0,0,0,4.589,0,4.447,4.447,0,0,0,2.811.367a4.571,4.571,0,0,0-1.459,1,4.686,4.686,0,0,0-.988,1.5A4.806,4.806,0,0,0,0,4.712,5.427,5.427,0,0,0,.352,6.581a8.494,8.494,0,0,0,.837,1.646A15.686,15.686,0,0,0,3.514,10.97a26.135,26.135,0,0,0,3.275,2.665l.412.275a.539.539,0,0,0,.6,0l.412-.275a26.473,26.473,0,0,0,3.275-2.665,15.686,15.686,0,0,0,2.325-2.742,8.4,8.4,0,0,0,.837-1.646A5.427,5.427,0,0,0,15,4.712a4.772,4.772,0,0,0-.363-1.843Z" fill="#fb6b79"/>
</svg>
