<svg xmlns="http://www.w3.org/2000/svg" width="14" height="14.996" viewBox="0 0 14 14.996">
  <g id="fluent:home-20-regular" transform="translate(-3 -2.004)">
    <g id="Group">
      <path id="Vector" d="M6,.384A1.5,1.5,0,0,1,8,.384l5.5,4.942A1.5,1.5,0,0,1,14,6.441V13.5A1.5,1.5,0,0,1,12.5,15H10a1.5,1.5,0,0,1-1.5-1.5V10A.5.5,0,0,0,8,9.5H6a.5.5,0,0,0-.5.5v3.5A1.5,1.5,0,0,1,4,15H1.5A1.5,1.5,0,0,1,0,13.5V6.441A1.5,1.5,0,0,1,.5,5.326L6,.384Zm1.336.744a.5.5,0,0,0-.668,0L1.166,6.07A.5.5,0,0,0,1,6.441V13.5a.5.5,0,0,0,.5.5H4a.5.5,0,0,0,.5-.5V10A1.5,1.5,0,0,1,6,8.5H8A1.5,1.5,0,0,1,9.5,10v3.5a.5.5,0,0,0,.5.5h2.5a.5.5,0,0,0,.5-.5V6.441a.5.5,0,0,0-.166-.371Z" transform="translate(3 2.004)" fill="#6c1682"/>
    </g>
  </g>
</svg>
