<svg xmlns="http://www.w3.org/2000/svg" width="25" height="25" viewBox="0 0 25 25">
  <g id="Group" transform="translate(-110 -764)">
    <path id="Vector" d="M3.75,15.572a9.849,9.849,0,0,0,1.7-2.517,18.984,18.984,0,0,1,3.2-4.449,18.539,18.539,0,0,1,4.4-3.154,9.893,9.893,0,0,0,2.523-1.7A2.2,2.2,0,0,0,12.465.643a9.848,9.848,0,0,0-1.7,2.517A18.581,18.581,0,0,1,7.609,7.571a18.943,18.943,0,0,1-4.443,3.192,9.893,9.893,0,0,0-2.523,1.7A2.2,2.2,0,0,0,3.75,15.572Z" transform="translate(114.392 768.392)" fill="#8a8a8c"/>
    <path id="Vector-2" data-name="Vector" d="M11.25,23.072a13.948,13.948,0,0,0,2.458-3.536,14.81,14.81,0,0,1,2.437-3.43,14.422,14.422,0,0,1,3.392-2.4,13.95,13.95,0,0,0,3.536-2.458A6.592,6.592,0,0,0,13.75,1.928a13.946,13.946,0,0,0-2.458,3.536,14.426,14.426,0,0,1-2.4,3.392,14.808,14.808,0,0,1-3.43,2.437A13.947,13.947,0,0,0,1.928,13.75a6.592,6.592,0,1,0,9.322,9.322ZM4,15.822A11.26,11.26,0,0,1,6.855,13.87a17.754,17.754,0,0,0,4.11-2.943,17.37,17.37,0,0,0,2.9-4.065A11.258,11.258,0,0,1,15.822,4,3.662,3.662,0,0,1,21,9.178a11.26,11.26,0,0,1-2.856,1.952,17.352,17.352,0,0,0-4.072,2.9,17.779,17.779,0,0,0-2.94,4.1A11.254,11.254,0,0,1,9.178,21,3.662,3.662,0,1,1,4,15.822Z" transform="translate(110 764)" fill="#8a8a8c"/>
    <path id="Vector-3" data-name="Vector" d="M3.758,8.728a13.89,13.89,0,0,1,2-3.006A12.864,12.864,0,0,1,8.728,3.758a2.186,2.186,0,0,0,.891-2.9L9.19,0A20.531,20.531,0,0,1,6.742,1.5,13.079,13.079,0,0,0,3.689,3.651a13.436,13.436,0,0,0-2.183,3.09A20.551,20.551,0,0,1,0,9.19l.859.429a2.186,2.186,0,0,0,2.9-.891Z" transform="translate(123.491 777.491)" fill="#8a8a8c"/>
    <path id="Vector-4" data-name="Vector" d="M.235,9l.429.859a20.5,20.5,0,0,1,2.448-1.5A13.457,13.457,0,0,0,6.2,6.165,13.062,13.062,0,0,0,8.349,3.113,20.548,20.548,0,0,1,9.854.664L9,.235a2.185,2.185,0,0,0-2.9.89A13.273,13.273,0,0,1,4.131,4.094a13.3,13.3,0,0,1-3.006,2A2.186,2.186,0,0,0,.235,9Z" transform="translate(111.655 765.655)" fill="#8a8a8c"/>
  </g>
</svg>
