<svg xmlns="http://www.w3.org/2000/svg" width="16" height="14.919" viewBox="0 0 16 14.919">
  <g id="Group_3" data-name="Group 3" transform="translate(-69 -502)">
    <path id="Vector" d="M8.4,11c2.64,0,3.96,0,4.78-.806S14,8.093,14,5.5s0-3.889-.82-4.694S11.04,0,8.4,0H5.6C2.96,0,1.64,0,.82.806S0,2.907,0,5.5s0,3.889.82,4.694a3.051,3.051,0,0,0,1.98.736" transform="translate(70 503)" fill="none" stroke="rgba(22,207,140,0.8)" stroke-linecap="round" stroke-linejoin="round" stroke-width="2"/>
    <path id="Vector-2" data-name="Vector" d="M5,1.134A5.144,5.144,0,0,0,2.5,2C1.2,2.783.555,3.175.236,2.925S-.024,1.9.1.352L.125,0" transform="translate(73 513)" fill="none" stroke="rgba(22,207,140,0.8)" stroke-linecap="round" stroke-width="2"/>
  </g>
</svg>
