<svg xmlns="http://www.w3.org/2000/svg" width="19.904" height="26.824" viewBox="0 0 19.904 26.824">
  <g id="Group_168" data-name="Group 168" transform="translate(-356.096 -9)">
    <g id="Group_167" data-name="Group 167">
      <path id="Rectangle_83" data-name="Rectangle 83" d="M8.408,0h0a8.408,8.408,0,0,1,8.408,8.408V20.643a0,0,0,0,1,0,0H0a0,0,0,0,1,0,0V8.408A8.408,8.408,0,0,1,8.408,0Z" transform="translate(357.812 10.995)" fill="#692cab"/>
      <rect id="Rectangle_84" data-name="Rectangle 84" width="19.904" height="4.817" rx="2.408" transform="translate(356.096 28.542)" fill="#692cab"/>
      <ellipse id="Ellipse_35" data-name="Ellipse 35" cx="2.231" cy="2.236" rx="2.231" ry="2.236" transform="translate(363.99 31.352)" fill="#692cab"/>
    </g>
    <path id="Rectangle_85" data-name="Rectangle 85" d="M1.99,0h0a1.99,1.99,0,0,1,1.99,1.99v2a0,0,0,0,1,0,0H0a0,0,0,0,1,0,0v-2A1.99,1.99,0,0,1,1.99,0Z" transform="translate(364.058 9)" fill="#692cab"/>
  </g>
</svg>
