<svg xmlns="http://www.w3.org/2000/svg" width="24" height="24" viewBox="0 0 24 24">
  <path id="Vector" d="M24-22.431a.652.652,0,0,0-.316-.515,2.692,2.692,0,0,0-.973-.386q-.656-.152-1.348-.281a15.474,15.474,0,0,0-1.77-.2q-1.078-.07-1.875-.105t-2.051-.059Q14.414-24,13.77-24H10.23l-1.9.023-2.051.059-1.875.105-1.77.2-1.348.281-.973.386L0-22.431q.047,2.06,2.578,3.641A16.006,16.006,0,0,0,9-16.695v.773A6.189,6.189,0,0,0,6.891-14.4a7.4,7.4,0,0,0-1.406,2.306,13.464,13.464,0,0,0-.75,2.833A21.336,21.336,0,0,0,4.5-5.994a5.884,5.884,0,0,0,.586,2.669A4.933,4.933,0,0,0,6.7-1.44,7.636,7.636,0,0,0,9.07-.363,11.154,11.154,0,0,0,12,0a11.154,11.154,0,0,0,2.93-.363A7.636,7.636,0,0,0,17.3-1.44a4.933,4.933,0,0,0,1.617-1.885A5.884,5.884,0,0,0,19.5-5.994q0-8.2-4.5-9.975v-.726a16.006,16.006,0,0,0,6.422-2.1Q23.953-20.371,24-22.431Z" transform="translate(24) rotate(180)" fill="#8a8a8c"/>
</svg>
