<svg xmlns="http://www.w3.org/2000/svg" width="20" height="20" viewBox="0 0 20 20">
  <g id="Group_2" data-name="Group 2" transform="translate(-351 -18)">
    <path id="Vector" d="M16,16H1.333V1.333h8.812L11.479,0H1.333A1.333,1.333,0,0,0,0,1.333V16a1.333,1.333,0,0,0,1.333,1.333H16A1.333,1.333,0,0,0,17.332,16V6L16,7.333Z" transform="translate(351 20.668)" fill="#6c1682"/>
    <path id="Vector-2" data-name="Vector" d="M13.667,2.562,11.42.315a1.073,1.073,0,0,0-1.52,0L.761,9.508l-.74,3.206A1.073,1.073,0,0,0,1.068,14a1.127,1.127,0,0,0,.247,0l3.233-.713,9.119-9.206a1.073,1.073,0,0,0,0-1.52ZM3.854,12.054l-2.44.54.567-2.42L8.86,3.248l1.88,1.88Zm7.639-7.679L9.614,2.5l1.033-1.053L12.54,3.335Z" transform="translate(357.018 18)" fill="#6c1682"/>
  </g>
</svg>
