<svg xmlns="http://www.w3.org/2000/svg" width="14" height="13" viewBox="0 0 14 13">
  <path id="Vector" d="M11,8.125a3.443,3.443,0,0,0-1.868.531l-3.2-1.626a2,2,0,0,0,0-1.058l3.2-1.626A3.442,3.442,0,0,0,11,4.875a2.763,2.763,0,0,0,3-2.437A2.763,2.763,0,0,0,11,0,2.763,2.763,0,0,0,8,2.438a2.008,2.008,0,0,0,.071.529l-3.2,1.626A3.443,3.443,0,0,0,3,4.063,2.763,2.763,0,0,0,0,6.5,2.763,2.763,0,0,0,3,8.938a3.443,3.443,0,0,0,1.868-.531l3.2,1.626A2.008,2.008,0,0,0,8,10.563,2.763,2.763,0,0,0,11,13a2.763,2.763,0,0,0,3-2.437A2.763,2.763,0,0,0,11,8.125Z" fill="rgba(3,169,244,0.8)"/>
</svg>
