<svg xmlns="http://www.w3.org/2000/svg" width="26" height="30" viewBox="0 0 26 30">
  <path id="Vector" d="M17.107,29.976,26,28.023S22.79,6.007,22.766,5.859a.275.275,0,0,0-.26-.239c-.12,0-2.377-.171-2.377-.171s-1.573-1.592-1.776-1.762a.383.383,0,0,0-.149-.093L17.079,29.977ZM12.642,14.131a5.233,5.233,0,0,0-2.185-.528C8.672,13.6,8.6,14.731,8.6,15.029c0,1.538,3.989,2.143,3.989,5.786,0,2.866-1.776,4.7-4.2,4.7a5.738,5.738,0,0,1-4.36-1.831l.794-2.607a5.562,5.562,0,0,0,2.811,1.333,1.172,1.172,0,0,0,1.2-1.167c0-2.021-3.273-2.114-3.273-5.444-.043-2.8,1.935-5.523,5.948-5.523a4.864,4.864,0,0,1,2.31.449l-1.164,3.4Zm-.664-13.1a.813.813,0,0,1,.5.171c-1.213.581-2.541,2.051-3.09,4.99q-1.156.382-2.325.723c.636-2.231,2.18-5.869,4.918-5.869ZM13.5,4.721v.171c-.929.288-1.954.606-2.95.918C11.121,3.588,12.189,2.5,13.118,2.1a7.5,7.5,0,0,1,.38,2.622Zm.663-2.787c.852.088,1.405,1.079,1.756,2.193-.429.142-.9.288-1.425.454V4.268a7.314,7.314,0,0,0-.332-2.339Zm3.686,1.611c-.029,0-.077.024-.1.024s-.356.093-.88.263c-.52-1.543-1.449-2.963-3.09-2.963h-.144A2.017,2.017,0,0,0,12.093,0C8.267,0,6.439,4.849,5.866,7.31c-1.473.454-2.541.791-2.661.84-.832.268-.856.293-.953,1.088C2.161,9.815,0,26.816,0,26.816L16.7,30Z" fill="#8a8a8c"/>
</svg>
