<svg xmlns="http://www.w3.org/2000/svg" width="83.277" height="83" viewBox="0 0 83.277 83">
  <g id="Group" transform="translate(-154 -343)">
    <g id="Group-2" data-name="Group">
      <path id="Vector" d="M11.7,42.034H3.186A3.186,3.186,0,0,1,0,38.848V3.186A3.186,3.186,0,0,1,3.186,0H11.7a3.186,3.186,0,0,1,3.186,3.186V38.848A3.186,3.186,0,0,1,11.7,42.034Z" transform="translate(155.221 382.746)" fill="#57be92"/>
    </g>
    <g id="Group-3" data-name="Group">
      <path id="Vector-2" data-name="Vector" d="M6.426,3.186V38.847a3.186,3.186,0,0,1-3.187,3.186H0a3.186,3.186,0,0,0,3.187-3.186V3.186A3.186,3.186,0,0,0,0,0H3.239A3.186,3.186,0,0,1,6.426,3.186Z" transform="translate(163.684 382.746)" fill="#09a76d"/>
    </g>
    <g id="Group-4" data-name="Group">
      <path id="Vector-3" data-name="Vector" d="M27.2,22.281s-.4-1.22-.57-1.591a4.661,4.661,0,0,1-.408-2.58c.257-1.971.325-3.982.384-5.868.1-3.112-.283-6.687-2.419-9.117A9.249,9.249,0,0,0,17.218,0,1.871,1.871,0,0,0,15.38,1.882V7.3c0,4.2-.774,8.95-3.493,12.3C8.293,24.033,5.078,23.435,0,23.442V53.36H2.872a4.8,4.8,0,0,1,2.986,1.052c1.386,1.1,4.094,3.948,8.254,3.948H40.06V22.281Z" transform="translate(170.111 365.168)" fill="#fed2a4"/>
    </g>
    <g id="Group-5" data-name="Group">
      <g id="Group-6" data-name="Group">
        <g id="Group-7" data-name="Group">
          <path id="Vector-4" data-name="Vector" d="M0,0A9.248,9.248,0,0,1,6.966,3.126c2.136,2.429,2.516,6,2.419,9.117-.059,1.887-.127,3.9-.384,5.868a4.661,4.661,0,0,0,.408,2.58c.109.232.305.8.436,1.188a8.637,8.637,0,0,1,.434,2.242,9.327,9.327,0,0,1-.854,4.3,10.11,10.11,0,0,1-4.97,4.606,1.979,1.979,0,0,1-2.9-1.641,2.02,2.02,0,0,1,.532-1.455,28.817,28.817,0,0,1,2.4-1.741A4.52,4.52,0,0,0,6.1,24.774a8.64,8.64,0,0,0-.639-3,8.974,8.974,0,0,1-.7-2.482,8.176,8.176,0,0,1,.088-1.62c.123-1.017.336-2.023.388-3.048A17.128,17.128,0,0,0,4.95,10.62,21.542,21.542,0,0,0,1.993,3.176Z" transform="translate(187.329 365.169)" fill="#ffbd86"/>
        </g>
      </g>
    </g>
    <g id="Group-8" data-name="Group">
      <path id="Vector-5" data-name="Vector" d="M22.055,1.92l3.193,6.469a3.444,3.444,0,0,0,2.593,1.884l7.14,1.037a3.444,3.444,0,0,1,1.909,5.875l-5.166,5.036a3.445,3.445,0,0,0-.991,3.049l1.22,7.111a3.444,3.444,0,0,1-5,3.631L20.57,32.654a3.445,3.445,0,0,0-3.206,0l-6.386,3.357a3.444,3.444,0,0,1-5-3.631L7.2,25.27a3.444,3.444,0,0,0-.991-3.049L1.044,17.186a3.444,3.444,0,0,1,1.909-5.875l7.14-1.037a3.444,3.444,0,0,0,2.593-1.884L15.878,1.92a3.444,3.444,0,0,1,6.177,0Z" transform="translate(198.122 344.221)" fill="#fee45a"/>
    </g>
    <g id="Group-9" data-name="Group">
      <path id="Vector-6" data-name="Vector" d="M5.137,11.152a3.449,3.449,0,0,0-.99,3.05l1.219,7.11a3.445,3.445,0,0,1-5,3.631L0,24.748A3.527,3.527,0,0,0,1.858,21L.6,13.656a3.561,3.561,0,0,1,1.022-3.148l5.335-5.2A3.56,3.56,0,0,0,6.723,0L8.4.243A3.443,3.443,0,0,1,10.3,6.117Z" transform="translate(224.708 355.29)" fill="#fed402"/>
    </g>
    <g id="Group-10" data-name="Group">
      <path id="Vector-7" data-name="Vector" d="M14.928,9.014H4.507A4.507,4.507,0,0,1,4.507,0H14.928a4.507,4.507,0,0,1,0,9.014Z" transform="translate(201.838 387.472)" fill="#f6a96c"/>
    </g>
    <g id="Group-11" data-name="Group">
      <path id="Vector-8" data-name="Vector" d="M14.928,9.014H4.507A4.507,4.507,0,0,1,4.507,0H14.928a4.507,4.507,0,0,1,0,9.014Z" transform="translate(201.838 405.5)" fill="#f6a96c"/>
    </g>
    <g id="Group-12" data-name="Group">
      <path id="Vector-9" data-name="Vector" d="M14.928,9.014H4.507A4.507,4.507,0,1,1,4.507,0H14.928a4.507,4.507,0,0,1,0,9.014Z" transform="translate(199.264 414.515)" fill="#f6a96c"/>
    </g>
    <g id="Group-13" data-name="Group">
      <path id="Vector-10" data-name="Vector" d="M14.928,9.014H4.507A4.507,4.507,0,0,1,4.507,0H14.928a4.507,4.507,0,0,1,0,9.014Z" transform="translate(203.955 396.486)" fill="#f6a96c"/>
    </g>
    <g id="Group-14" data-name="Group">
      <path id="Vector-11" data-name="Vector" d="M19.435,4.507a4.482,4.482,0,0,1-.3,1.62,4.5,4.5,0,0,0-4.2-2.888H4.507A4.505,4.505,0,0,0,.3,6.127,4.507,4.507,0,0,1,4.507,0H14.929A4.507,4.507,0,0,1,19.435,4.507Z" transform="translate(201.838 387.472)" fill="#ea9b58"/>
    </g>
    <g id="Group-15" data-name="Group">
      <path id="Vector-12" data-name="Vector" d="M19.435,4.507a4.482,4.482,0,0,1-.3,1.62,4.5,4.5,0,0,0-4.2-2.888H4.507A4.505,4.505,0,0,0,.3,6.127,4.507,4.507,0,0,1,4.507,0H14.929A4.507,4.507,0,0,1,19.435,4.507Z" transform="translate(201.838 405.501)" fill="#ea9b58"/>
    </g>
    <g id="Group-16" data-name="Group">
      <path id="Vector-13" data-name="Vector" d="M19.435,4.507a4.441,4.441,0,0,1-.3,1.62,4.506,4.506,0,0,0-4.206-2.888H4.507A4.505,4.505,0,0,0,.3,6.127,4.441,4.441,0,0,1,0,4.507,4.506,4.506,0,0,1,4.507,0h10.42A4.508,4.508,0,0,1,19.435,4.507Z" transform="translate(199.265 414.514)" fill="#ea9b58"/>
    </g>
    <g id="Group-17" data-name="Group">
      <path id="Vector-14" data-name="Vector" d="M19.435,4.507a4.447,4.447,0,0,1-.3,1.62,4.5,4.5,0,0,0-4.2-2.888H4.507A4.505,4.505,0,0,0,.3,6.127,4.447,4.447,0,0,1,0,4.507,4.506,4.506,0,0,1,4.507,0H14.929A4.506,4.506,0,0,1,19.435,4.507Z" transform="translate(203.955 396.486)" fill="#ea9b58"/>
    </g>
    <g id="Group-18" data-name="Group">
      <path id="Vector-15" data-name="Vector" d="M38.963,19.281a4.665,4.665,0,0,0-2.586-7.957l-7.139-1.037A2.223,2.223,0,0,1,27.564,9.07L24.371,2.6A4.665,4.665,0,0,0,16,2.6L12.811,9.07a2.223,2.223,0,0,1-1.674,1.216L4,11.324a4.665,4.665,0,0,0-2.586,7.957l5.166,5.036a2.223,2.223,0,0,1,.639,1.968L6,33.4a4.659,4.659,0,0,0,6.769,4.918l6.386-3.357a2.223,2.223,0,0,1,2.069,0l6.386,3.357A4.665,4.665,0,0,0,34.377,33.4l-.233-1.361a1.221,1.221,0,0,0-2.407.413l.233,1.361a2.223,2.223,0,0,1-3.226,2.344l-6.386-3.357a4.663,4.663,0,0,0-4.342,0l-6.386,3.357A2.223,2.223,0,0,1,8.4,33.808L9.624,26.7a4.664,4.664,0,0,0-1.341-4.129L3.117,17.533a2.223,2.223,0,0,1,1.232-3.792L11.488,12.7A4.665,4.665,0,0,0,15,10.151l3.193-6.469a2.223,2.223,0,0,1,3.987,0l3.193,6.469A4.665,4.665,0,0,0,28.886,12.7l7.139,1.037a2.223,2.223,0,0,1,1.232,3.792l-5.166,5.036A4.664,4.664,0,0,0,30.75,26.7l.041.237a1.221,1.221,0,0,0,2.407-.413l-.041-.237a2.223,2.223,0,0,1,.639-1.968Z" transform="translate(196.902 343)"/>
      <path id="Vector-16" data-name="Vector" d="M67.1,31.766A5.723,5.723,0,0,0,62.766,22.3l-18.583-.022c0-.007-.208-.6-.339-.883l0,0a3.435,3.435,0,0,1-.3-1.9c.272-2.085.34-4.249.394-5.988.14-4.461-.751-7.719-2.722-9.961A10.413,10.413,0,0,0,33.389,0h-.068A3.1,3.1,0,0,0,30.27,3.1V8.526c0,3.451-.559,8.252-3.22,11.53-2.823,3.478-5.261,3.448-9.3,3.4l-.42,0V21.984a4.412,4.412,0,0,0-4.407-4.407H4.407A4.412,4.412,0,0,0,0,21.984v12.26a1.221,1.221,0,1,0,2.442,0V21.984a1.967,1.967,0,0,1,1.965-1.965h8.517a1.967,1.967,0,0,1,1.965,1.965V57.646a1.967,1.967,0,0,1-1.965,1.965H4.407a1.967,1.967,0,0,1-1.965-1.965V39.815a1.221,1.221,0,0,0-2.442,0V57.646a4.412,4.412,0,0,0,4.407,4.407h8.517a4.412,4.412,0,0,0,4.407-4.407V55.8h1.651a3.592,3.592,0,0,1,2.226.786c.165.131.356.295.578.484,1.527,1.3,4.368,3.73,8.436,3.73h29.97a5.724,5.724,0,0,0,4.449-9.331A5.721,5.721,0,0,0,67.1,42.326a5.728,5.728,0,0,0,0-10.56ZM52.345,24.745H62.766a3.286,3.286,0,1,1,0,6.572H52.345a3.286,3.286,0,1,1,0-6.572ZM45.084,58.36H30.223c-3.167,0-5.384-1.893-6.851-3.145-.229-.2-.446-.381-.643-.538a6.043,6.043,0,0,0-3.746-1.317H17.331V25.891l.39,0c4.277.052,7.657.094,11.225-4.3,1.718-2.116,3.766-6.1,3.766-13.069V3.1a.647.647,0,0,1,.625-.661h.049a8.083,8.083,0,0,1,5.992,2.711c1.543,1.754,2.234,4.46,2.115,8.272-.053,1.686-.118,3.783-.375,5.748a5.872,5.872,0,0,0,.513,3.255l.008.018.013.029,0,.006a8.558,8.558,0,0,1,.734,2.916,8.155,8.155,0,0,1-.751,3.747,8.855,8.855,0,0,1-4.348,3.983,1.221,1.221,0,0,0-.621,1.611c.945,2.132,4.456-1.073,5.322-1.971a9.438,9.438,0,0,0,1.877-2.629,10.561,10.561,0,0,0,.96-4.853c-.008-.182-.025-.371-.047-.563h2.894a5.722,5.722,0,0,0,2.451,8.588,5.711,5.711,0,0,0,0,7.469A5.723,5.723,0,0,0,47.9,49.663a5.721,5.721,0,0,0-2.813,8.7Zm15.109,0H49.765a3.286,3.286,0,0,1,.006-6.572H60.192a3.286,3.286,0,1,1,0,6.572Zm2.574-9.014H52.345a3.286,3.286,0,1,1,0-6.572H62.766a3.286,3.286,0,1,1,0,6.572Zm2.117-9.014H54.462a3.286,3.286,0,1,1,0-6.572H64.883a3.286,3.286,0,1,1,0,6.572Z" transform="translate(154 363.947)"/>
    </g>
  </g>
</svg>
